<svg xmlns="http://www.w3.org/2000/svg" viewBox="0 0 675 361" font-family="Segoe UI, Microsoft YaHei, Arial">
<rect width="675" height="361" fill="#ffffff"/>
<line x1="42.5" y1="55.2" x2="42.5" y2="80.8" stroke="#334155" stroke-width="1.6"/>
<line x1="42.5" y1="80.8" x2="59.5" y2="80.8" stroke="#334155" stroke-width="1.6"/>
<line x1="59.5" y1="55.2" x2="42.5" y2="55.2" stroke="#334155" stroke-width="1.6"/>
<line x1="34.0" y1="89.2" x2="34.0" y2="46.8" stroke="#334155" stroke-width="1.6"/>
<line x1="34.0" y1="46.8" x2="59.5" y2="46.8" stroke="#334155" stroke-width="1.6"/>
<line x1="59.5" y1="89.2" x2="34.0" y2="89.2" stroke="#334155" stroke-width="1.6"/>
<line x1="620.5" y1="280.5" x2="620.5" y2="272.0" stroke="#334155" stroke-width="1.6"/>
<line x1="476.0" y1="272.0" x2="476.0" y2="280.5" stroke="#334155" stroke-width="1.6"/>
<line x1="476.0" y1="301.8" x2="476.0" y2="297.5" stroke="#334155" stroke-width="1.6"/>
<line x1="42.5" y1="34.0" x2="42.5" y2="55.2" stroke="#334155" stroke-width="1.6"/>
<line x1="442.0" y1="106.2" x2="471.8" y2="106.2" stroke="#334155" stroke-width="1.6"/>
<line x1="442.0" y1="80.8" x2="471.8" y2="80.8" stroke="#334155" stroke-width="1.6"/>
<line x1="34.0" y1="106.2" x2="34.0" y2="89.2" stroke="#334155" stroke-width="1.6"/>
<line x1="620.5" y1="297.5" x2="620.5" y2="301.8" stroke="#334155" stroke-width="1.6"/>
<line x1="552.5" y1="97.8" x2="552.5" y2="51.0" stroke="#334155" stroke-width="1.6"/>
<line x1="552.5" y1="51.0" x2="510.0" y2="51.0" stroke="#334155" stroke-width="1.6"/>
<line x1="620.5" y1="280.5" x2="641.8" y2="280.5" stroke="#334155" stroke-width="1.6"/>
<line x1="620.5" y1="297.5" x2="641.8" y2="297.5" stroke="#334155" stroke-width="1.6"/>
<line x1="641.8" y1="289.0" x2="612.0" y2="289.0" stroke="#334155" stroke-width="1.6"/>
<line x1="476.0" y1="297.5" x2="497.2" y2="297.5" stroke="#334155" stroke-width="1.6"/>
<line x1="476.0" y1="280.5" x2="497.2" y2="280.5" stroke="#334155" stroke-width="1.6"/>
<line x1="467.5" y1="289.0" x2="497.2" y2="289.0" stroke="#334155" stroke-width="1.6"/>
<line x1="476.0" y1="131.8" x2="442.0" y2="131.8" stroke="#334155" stroke-width="1.6"/>
<line x1="276.2" y1="119.0" x2="250.8" y2="119.0" stroke="#334155" stroke-width="1.6"/>
<line x1="97.8" y1="250.8" x2="110.5" y2="250.8" stroke="#334155" stroke-width="1.6"/>
<line x1="97.8" y1="250.8" x2="97.8" y2="242.2" stroke="#334155" stroke-width="1.6"/>
<line x1="97.8" y1="259.2" x2="110.5" y2="259.2" stroke="#334155" stroke-width="1.6"/>
<line x1="97.8" y1="318.8" x2="97.8" y2="259.2" stroke="#334155" stroke-width="1.6"/>
<line x1="476.0" y1="119.0" x2="442.0" y2="119.0" stroke="#334155" stroke-width="1.6"/>
<line x1="476.0" y1="144.5" x2="442.0" y2="144.5" stroke="#334155" stroke-width="1.6"/>
<line x1="250.8" y1="93.5" x2="276.2" y2="93.5" stroke="#334155" stroke-width="1.6"/>
<line x1="250.8" y1="106.2" x2="276.2" y2="106.2" stroke="#334155" stroke-width="1.6"/>
<line x1="80.8" y1="267.8" x2="110.5" y2="267.8" stroke="#334155" stroke-width="1.6"/>
<line x1="80.8" y1="276.2" x2="110.5" y2="276.2" stroke="#334155" stroke-width="1.6"/>
<line x1="110.5" y1="284.8" x2="80.8" y2="284.8" stroke="#334155" stroke-width="1.6"/>
<line x1="80.8" y1="293.2" x2="110.5" y2="293.2" stroke="#334155" stroke-width="1.6"/>
<line x1="250.8" y1="80.8" x2="276.2" y2="80.8" stroke="#334155" stroke-width="1.6"/>
<line x1="250.8" y1="131.8" x2="276.2" y2="131.8" stroke="#334155" stroke-width="1.6"/>
<line x1="250.8" y1="144.5" x2="276.2" y2="144.5" stroke="#334155" stroke-width="1.6"/>
<line x1="425.0" y1="68.0" x2="412.2" y2="68.0" stroke="#334155" stroke-width="1.6"/>
<line x1="425.0" y1="51.0" x2="412.2" y2="51.0" stroke="#334155" stroke-width="1.6"/>
<line x1="425.0" y1="59.5" x2="412.2" y2="59.5" stroke="#334155" stroke-width="1.6"/>
<line x1="425.0" y1="42.5" x2="412.2" y2="42.5" stroke="#334155" stroke-width="1.6"/>
<line x1="425.0" y1="76.5" x2="412.2" y2="76.5" stroke="#334155" stroke-width="1.6"/>
<line x1="425.0" y1="85.0" x2="412.2" y2="85.0" stroke="#334155" stroke-width="1.6"/>
<line x1="561.0" y1="42.5" x2="510.0" y2="42.5" stroke="#334155" stroke-width="1.6"/>
<line x1="561.0" y1="59.5" x2="510.0" y2="59.5" stroke="#334155" stroke-width="1.6"/>
<line x1="510.0" y1="76.5" x2="569.5" y2="76.5" stroke="#334155" stroke-width="1.6"/>
<line x1="510.0" y1="68.0" x2="569.5" y2="68.0" stroke="#334155" stroke-width="1.6"/>
<line x1="510.0" y1="85.0" x2="569.5" y2="85.0" stroke="#334155" stroke-width="1.6"/>
<line x1="306.0" y1="263.5" x2="306.0" y2="246.5" stroke="#334155" stroke-width="1.6"/>
<line x1="331.5" y1="263.5" x2="306.0" y2="263.5" stroke="#334155" stroke-width="1.6"/>
<line x1="331.5" y1="272.0" x2="306.0" y2="272.0" stroke="#334155" stroke-width="1.6"/>
<line x1="306.0" y1="272.0" x2="306.0" y2="327.2" stroke="#334155" stroke-width="1.6"/>
<line x1="331.5" y1="297.5" x2="297.5" y2="297.5" stroke="#334155" stroke-width="1.6"/>
<line x1="331.5" y1="306.0" x2="297.5" y2="306.0" stroke="#334155" stroke-width="1.6"/>
<line x1="331.5" y1="314.5" x2="297.5" y2="314.5" stroke="#334155" stroke-width="1.6"/>
<text x="102.0" y="63.8" text-anchor="middle" font-size="11" font-weight="700" fill="#14532d">USB</text>
<circle cx="144.5" cy="63.8" r="3" fill="#9ca3af"/>
<circle cx="59.5" cy="89.2" r="3" fill="#111827"/>
<circle cx="59.5" cy="80.8" r="3" fill="#dc2626"/>
<circle cx="59.5" cy="63.8" r="3" fill="#9ca3af"/>
<circle cx="59.5" cy="72.2" r="3" fill="#9ca3af"/>
<circle cx="59.5" cy="55.2" r="3" fill="#dc2626"/>
<circle cx="59.5" cy="46.8" r="3" fill="#111827"/>
<text x="658.8" y="289.0" text-anchor="middle" font-size="11" font-weight="700" fill="#14532d">Y舵机</text>
<circle cx="641.8" cy="280.5" r="3" fill="#dc2626"/>
<circle cx="641.8" cy="289.0" r="3" fill="#059669"/>
<circle cx="641.8" cy="297.5" r="3" fill="#111827"/>
<text x="514.2" y="289.0" text-anchor="middle" font-size="11" font-weight="700" fill="#14532d">X舵机</text>
<circle cx="497.2" cy="280.5" r="3" fill="#dc2626"/>
<circle cx="497.2" cy="289.0" r="3" fill="#059669"/>
<circle cx="497.2" cy="297.5" r="3" fill="#111827"/>
<text x="127.5" y="280.5" text-anchor="middle" font-size="11" font-weight="700" fill="#14532d">LCD</text>
<circle cx="110.5" cy="250.8" r="3" fill="#d97706"/>
<circle cx="110.5" cy="259.2" r="3" fill="#111827"/>
<circle cx="110.5" cy="267.8" r="3" fill="#0891b2"/>
<circle cx="110.5" cy="276.2" r="3" fill="#0891b2"/>
<circle cx="110.5" cy="284.8" r="3" fill="#0891b2"/>
<circle cx="110.5" cy="293.2" r="3" fill="#0891b2"/>
<circle cx="110.5" cy="301.8" r="3" fill="#9ca3af"/>
<circle cx="110.5" cy="310.2" r="3" fill="#9ca3af"/>
<circle cx="131.8" cy="327.2" r="3" fill="#9ca3af"/>
<circle cx="131.8" cy="233.8" r="3" fill="#9ca3af"/>
<text x="442.0" y="68.0" text-anchor="middle" font-size="11" font-weight="700" fill="#14532d">ESP32S3_H1</text>
<circle cx="425.0" cy="42.5" r="3" fill="#7c3aed"/>
<text x="430.0" y="45.5" font-size="8.5" fill="#0f172a">D0</text>
<circle cx="425.0" cy="51.0" r="3" fill="#0891b2"/>
<text x="430.0" y="54.0" font-size="8.5" fill="#0f172a">D1</text>
<circle cx="425.0" cy="59.5" r="3" fill="#0891b2"/>
<text x="430.0" y="62.5" font-size="8.5" fill="#0f172a">D2</text>
<circle cx="425.0" cy="68.0" r="3" fill="#059669"/>
<text x="430.0" y="71.0" font-size="8.5" fill="#0f172a">D3</text>
<circle cx="425.0" cy="76.5" r="3" fill="#7c3aed"/>
<text x="430.0" y="79.5" font-size="8.5" fill="#0f172a">D4</text>
<circle cx="425.0" cy="85.0" r="3" fill="#7c3aed"/>
<text x="430.0" y="88.0" font-size="8.5" fill="#0f172a">D5</text>
<circle cx="425.0" cy="93.5" r="3" fill="#9ca3af"/>
<text x="430.0" y="96.5" font-size="8.5" fill="#0f172a">D6</text>
<text x="493.0" y="68.0" text-anchor="middle" font-size="11" font-weight="700" fill="#14532d">ESP32S3_H2</text>
<circle cx="510.0" cy="42.5" r="3" fill="#dc2626"/>
<text x="515.0" y="45.5" font-size="8.5" fill="#0f172a">USB</text>
<circle cx="510.0" cy="51.0" r="3" fill="#111827"/>
<text x="515.0" y="54.0" font-size="8.5" fill="#0f172a">GND</text>
<circle cx="510.0" cy="59.5" r="3" fill="#d97706"/>
<text x="515.0" y="62.5" font-size="8.5" fill="#0f172a">3V3</text>
<circle cx="510.0" cy="68.0" r="3" fill="#0891b2"/>
<text x="515.0" y="71.0" font-size="8.5" fill="#0f172a">D10</text>
<circle cx="510.0" cy="76.5" r="3" fill="#059669"/>
<text x="515.0" y="79.5" font-size="8.5" fill="#0f172a">D9</text>
<circle cx="510.0" cy="85.0" r="3" fill="#0891b2"/>
<text x="515.0" y="88.0" font-size="8.5" fill="#0f172a">D8</text>
<circle cx="510.0" cy="93.5" r="3" fill="#9ca3af"/>
<text x="515.0" y="96.5" font-size="8.5" fill="#0f172a">D7</text>
<text x="348.5" y="289.0" text-anchor="middle" font-size="11" font-weight="700" fill="#14532d">MAX98357AModule</text>
<circle cx="331.5" cy="263.5" r="3" fill="#dc2626"/>
<text x="336.5" y="266.5" font-size="8.5" fill="#0f172a">VIN</text>
<circle cx="331.5" cy="272.0" r="3" fill="#111827"/>
<text x="336.5" y="275.0" font-size="8.5" fill="#0f172a">GND</text>
<circle cx="331.5" cy="280.5" r="3" fill="#9ca3af"/>
<text x="336.5" y="283.5" font-size="8.5" fill="#0f172a">SD</text>
<circle cx="331.5" cy="289.0" r="3" fill="#9ca3af"/>
<text x="336.5" y="292.0" font-size="8.5" fill="#0f172a">GAIN</text>
<circle cx="331.5" cy="297.5" r="3" fill="#7c3aed"/>
<text x="336.5" y="300.5" font-size="8.5" fill="#0f172a">DIN</text>
<circle cx="331.5" cy="306.0" r="3" fill="#7c3aed"/>
<text x="336.5" y="309.0" font-size="8.5" fill="#0f172a">BCLK</text>
<circle cx="331.5" cy="314.5" r="3" fill="#7c3aed"/>
<text x="336.5" y="317.5" font-size="8.5" fill="#0f172a">LRC</text>
<text x="42.5" y="28.0" text-anchor="middle" font-size="10.5" font-weight="700" fill="#dc2626">5V</text>
<text x="620.5" y="266.0" text-anchor="middle" font-size="10.5" font-weight="700" fill="#dc2626">5V</text>
<text x="476.0" y="266.0" text-anchor="middle" font-size="10.5" font-weight="700" fill="#dc2626">5V</text>
<text x="561.0" y="53.5" text-anchor="middle" font-size="10.5" font-weight="700" fill="#d97706">3.3V</text>
<text x="561.0" y="36.5" text-anchor="middle" font-size="10.5" font-weight="700" fill="#dc2626">5V</text>
<text x="34.0" y="100.2" text-anchor="middle" font-size="10.5" font-weight="700" fill="#111827">GND</text>
<text x="476.0" y="295.8" text-anchor="middle" font-size="10.5" font-weight="700" fill="#111827">GND</text>
<text x="620.5" y="295.8" text-anchor="middle" font-size="10.5" font-weight="700" fill="#111827">GND</text>
<text x="552.5" y="91.8" text-anchor="middle" font-size="10.5" font-weight="700" fill="#111827">GND</text>
<text x="467.5" y="283.0" text-anchor="middle" font-size="10.5" font-weight="700" fill="#059669">SX</text>
<text x="612.0" y="283.0" text-anchor="middle" font-size="10.5" font-weight="700" fill="#059669">SY</text>
<text x="569.5" y="70.5" text-anchor="middle" font-size="10.5" font-weight="700" fill="#059669">SX</text>
<text x="412.2" y="62.0" text-anchor="middle" font-size="10.5" font-weight="700" fill="#059669">SY</text>
<text x="97.8" y="236.2" text-anchor="middle" font-size="10.5" font-weight="700" fill="#d97706">3.3V</text>
<text x="97.8" y="312.8" text-anchor="middle" font-size="10.5" font-weight="700" fill="#111827">GND</text>
<text x="569.5" y="62.0" text-anchor="middle" font-size="10.5" font-weight="700" fill="#0891b2">LCD_DIN</text>
<text x="569.5" y="79.0" text-anchor="middle" font-size="10.5" font-weight="700" fill="#0891b2">LCD_CLK</text>
<text x="412.2" y="45.0" text-anchor="middle" font-size="10.5" font-weight="700" fill="#0891b2">LCD_CS</text>
<text x="412.2" y="53.5" text-anchor="middle" font-size="10.5" font-weight="700" fill="#0891b2">LCD_DC</text>
<text x="80.8" y="261.8" text-anchor="middle" font-size="10.5" font-weight="700" fill="#0891b2">LCD_DIN</text>
<text x="80.8" y="270.2" text-anchor="middle" font-size="10.5" font-weight="700" fill="#0891b2">LCD_CLK</text>
<text x="80.8" y="278.8" text-anchor="middle" font-size="10.5" font-weight="700" fill="#0891b2">LCD_CS</text>
<text x="80.8" y="287.2" text-anchor="middle" font-size="10.5" font-weight="700" fill="#0891b2">LCD_DC</text>
<text x="412.2" y="36.5" text-anchor="middle" font-size="10.5" font-weight="700" fill="#7c3aed">Aud_DIN</text>
<text x="412.2" y="70.5" text-anchor="middle" font-size="10.5" font-weight="700" fill="#7c3aed">Aud_LRC</text>
<text x="412.2" y="79.0" text-anchor="middle" font-size="10.5" font-weight="700" fill="#7c3aed">Aud_CLK</text>
<text x="306.0" y="240.5" text-anchor="middle" font-size="10.5" font-weight="700" fill="#dc2626">5V</text>
<text x="306.0" y="321.2" text-anchor="middle" font-size="10.5" font-weight="700" fill="#111827">GND</text>
<text x="297.5" y="291.5" text-anchor="middle" font-size="10.5" font-weight="700" fill="#7c3aed">Aud_DIN</text>
<text x="297.5" y="308.5" text-anchor="middle" font-size="10.5" font-weight="700" fill="#7c3aed">Aud_LRC</text>
<text x="297.5" y="300.0" text-anchor="middle" font-size="10.5" font-weight="700" fill="#7c3aed">Aud_CLK</text>
</svg>